<?xml version="1.0" encoding="utf-8"?>
<!-- Generator: Adobe Illustrator 27.5.0, SVG Export Plug-In . SVG Version: 6.00 Build 0)  -->
<svg version="1.1" id="Layer_1" xmlns="http://www.w3.org/2000/svg" xmlns:xlink="http://www.w3.org/1999/xlink" x="0px" y="0px"
	 viewBox="0 0 1184.4 364.9" style="enable-background:new 0 0 1184.4 364.9;" xml:space="preserve">
<style type="text/css">
	.st0{fill-rule:evenodd;clip-rule:evenodd;fill:#F37321;}
	.st1{fill-rule:evenodd;clip-rule:evenodd;fill:#449D46;}
	.st2{fill-rule:evenodd;clip-rule:evenodd;fill:#333333;}
</style>
<path class="st0" d="M589.9,65.7c11.5-7.1,26.4-13.5,45.9-20.3c14.9-5.1,21.3-3,36.5-6.8c7.4-2,50.3-12.8,64.9-16.6
	c14.9-4.1,33.8-6.8,57.1-8.4c23-1.7,55.4-4.1,71.3-4.4c15.9-0.7,50.3-1.3,69.9,0.7c19.6,2,17.9,1.3,22.3,4.7c4,3.4,6.1,2.4,6.8,1.4
	c0.7-1-4.1-3.4-4.1-3.4s7.1,1.4,13.8,2.7c7.1,1.7,12.5,1.7,14.5,2.4c2,0.3,1.7,2.7,3.7,2.7c2,0,9.5-0.3,15.2,1.7s9.5,1.4,12.2,2.7
	c2.7,1,2.7,2.4,4.4,2.4c2,0,1.7-1.4,5.4,0c3.4,1.4,10.8,2.7,18.9,5.4c8.4,2.7,12.2,3.4,16.6,5.4c4.7,1.7,7.1,5.7,9.1,6.1
	c0,0-5.4,0-10.8-0.3c-5.4-0.7-20.6-1.3-23-1.7c-4.1-0.3-8.8-4.7-15.2-5.7c-6.1-0.7-8.1,2.4-12.2,2.4c-4.1,0-1.4-4.1-7.4-3.7
	c-5.7,0.3-8.1,1-9.5,0.7c-1,0,0.3,2.7-0.3,3c-1,0-15.2-0.3-19.3-0.7c-3.7-0.7-10.8-3.7-18.9-4.1c-8.1-0.3-15.9,0.7-24.3,3
	c-8.4,2.4-22.6,0.3-41.2,1.3c-18.2,1.4-50.7,5.4-72.3,9.5c-21.6,4.1-29.4,2-46.6,5.7c-17.6,4.1-21.6,4.4-30.1,5.7
	s-28.4,9.1-38.9,13.9c-10.5,4.4-21.3,5.4-27,5.4s-9.5-2-17.2-2c-7.4,0-28,4.4-27.7,11.8c0,0-3.7,0-7.8,1.4c-4.1,1-13.5,3.7-18.6,6.4
	c-5.1,2.4-11.5,0-13.2-0.3c-1.3-0.3-4.7-0.7-6.1,0.3c0,0,0.3-2-0.7-3.4c-1.4-1-4.7-5.7-4.7-9.1C581.1,80.2,581.8,70.8,589.9,65.7
	L589.9,65.7z"/>
<path class="st1" d="M1124.7,99.8c4.4,2.7,9.1,5.7,9.1,6.4c0,0,1.7,1-9.5-1.7c-5.1-1-20.9-2-23.3-2.4c-7.4-1.4-11.1-5.4-15.5-6.1
	c-6.4-1-9.5,2-11.8,2c-5.1-0.3-0.7-3.7-6.1-3.7c-5.7,0.3-9.1,0.7-10.1,0.3c-1.4,0-0.7,3-1.7,3c-1,0.3-14.5-1-18.6-1.7
	c-6.1-0.7-11.8-4.1-20.3-4.4c-8.1-0.7-13.2,0.7-23.6,2.4c-9.1,1.4-23.3-0.7-42.2-0.3c-18.6,0.3-51.7,3-74,5.7c-22.3,3-30.1,1-48,3.7
	c-17.9,2.7-22,3.4-30.7,4.1c-8.8,1-29,7.4-39.9,11.1c-10.8,3.7-22,4.1-28,3.7c-5.7,0-9.5-2-17.2-2.4c-7.8,0-30.4,3-30.1,9.8
	c0,0-3.7,0-8.1,1c-4.1,0.7-12.5,2.7-17.6,4.7c-5.4,2.4-11.8,0-13.5-0.7c-1.4-0.3-5.1-0.7-6.1,0.3c0,0,0.3-2-0.7-3
	c-1.4-1-4.7-5.4-4.7-8.4c0-3,1.4-10.8,9.8-15.2c11.8-6.1,27-11.8,47-17.2c15.5-4.1,22-1.7,37.2-4.7c7.8-1.4,52-10.1,66.9-13.2
	c15.2-3,34.8-4.1,58.4-5.1c23.6-0.7,56.8-2.4,73-2.4s53.4,0.7,73.3,3s17.9,2,22.3,5.1c4.4,3,8.1,2.4,8.8,1.4c1-0.7-3.7-3-3.7-3
	s3.7,1.4,10.5,3c7.1,1.7,14.9,2.7,16.9,3.4c2,0.7,1.7,2.7,3.7,3c2,0,7.1-0.3,12.8,1.3c5.7,2,9.8,2,12.5,3c2.4,1,2.7,2.7,4.4,2.7
	c2,0,1.7-1,5.4,0.3c3.4,1.4,8.8,2.4,17.2,5.1c2,0.7,7.1,3,8.4,3.4C1119.3,98.1,1122.6,98.5,1124.7,99.8L1124.7,99.8z"/>
<path class="st0" d="M1089.2,41.7c0.3,1,0,2,1,2c1,0,1.7,0,2.7,0.3c1,0.3,1,0,1.4,1c0.3,0.7,1,1,2,1c1-0.3,1.3-1.4,0.7-1.7
	c-0.7-0.3-1-0.7-2-0.7c-1,0-1,0.3-1.7,0c-0.7-0.7-0.7-0.7-1-1.3c-0.7-1-0.7-1-2-1C1088.9,41.4,1089.2,41.7,1089.2,41.7L1089.2,41.7z
	"/>
<path class="st0" d="M1106.1,48.8c0.7,0.7-0.7,1,0.3,1.7c1,0.3,0.7,0,1.3,0.7c0.3,1,0.7,1,1.3,0.7c0.7,0,1,0.7,1.4-0.3
	c0-0.7,0-2-0.7-2c-1-0.3-0.7,0.3-1-0.3c-0.3-0.3,0-0.7-1-0.7C1106.8,48.5,1105.8,48.1,1106.1,48.8L1106.1,48.8z"/>
<path class="st0" d="M1058.8,48.8c0,0.7-0.3,1.3,0.3,2c1,0.3,2,0.3,3.4,0.3c1.4,0.3,2,0.7,4.1,1c1.7,0.7,2.7,1,4.4,1.4
	c1.7,0.3,2,0.7,4.1,1c2,0.3,2,0.7,3,1c1.3,0.3,2.4,1,4,1.4c1.7,0.3,2,0,3.7,0.3c2,0.7,2,0.3,3.4,1c1,0.7,2.7,1,3.7,1c0.7,0,2,0,2,0
	s-1-1-1-1.7c-0.3-0.7-1.7-3-4.1-2.7c-3,0-4.4-0.3-6.4-0.7c-1.7,0-3,0-4.4-0.3c-1-0.3-2.7-1-3-1.7c-0.7-0.3-1.3-1.4-2.4-2
	c-0.7-0.7-0.7-1.7-2-2c-1.3-0.3-4.1-0.7-5.7-0.7c-1.7,0-4.7-0.3-5.7,0c-1,0.3-1,0.3-1.3,1V48.8L1058.8,48.8z"/>
<path class="st0" d="M1097.3,59.9c1.7-0.3,1-0.7,3-0.7c2.4,0,5.1,0.3,5.7,0.7c0.3,0,2.7-0.3,5.1,1.4c2,1.3,2.7,1,3.7,2
	c1,0.7,2.4,1,1.7,1.4c-0.7,0-3-0.3-4.4-0.7c-1.3-0.7-3.7-1.4-5.4-1.7c-2-0.3-3-0.3-4.4-0.7c-1.7-0.3-2.7-0.3-3.7-0.7
	C1097.6,60.6,1096,59.9,1097.3,59.9L1097.3,59.9z"/>
<path class="st0" d="M1138.5,67.7c-0.3,0.3,1.3,2.4,3.7,3c2.4,1,2.7,2,4.4,3c1.7,1.4,2.7,2.4,4,3.4c1.3,1,1.7,1,3.4,2
	c1.7,1,3.4,2,4.1,1.4c0.3-0.7,0-1.4-1.3-2.7c-1-1-5.4-4.1-7.4-5.4c-2-1.4-4.7-3-6.1-3.7C1142.2,68.1,1139.2,67,1138.5,67.7
	L1138.5,67.7z"/>
<path class="st2" d="M101.7,180.9c-58.1,0-93.2,39.9-93.2,88.5c0,49,35.8,88.5,93.2,88.5c54.4,0,91.2-39.5,91.2-88.5
	C192.9,220.8,154.7,180.9,101.7,180.9L101.7,180.9L101.7,180.9z M100.7,321.1c-28,0-51-23.3-51-51.7c0-28,23-52,51-52
	c28.4,0,50.3,24,50.3,52C151,297.8,129.1,321.1,100.7,321.1L100.7,321.1z"/>
<path class="st2" d="M207.8,180.9H247v32.4c0,0,10.1-32.1,54.1-32.1c43.6,0,60.1,28,60.1,64.2c0,35.8,0,112,0,112h-40.5
	c0,0,0-74.1,0-93.7c0-19.9-5.4-45.6-32.4-45.6c-27.4,0-38.8,19.6-38.8,42.9c0,23.3,0,96.4,0,96.4h-41.6L207.8,180.9L207.8,180.9z"/>
<path class="st2" d="M464.9,325.4c-43,0-46.7-41.3-46.7-41.3h129.3c0-28.2,0-38.9-6.4-54.7c-6.7-15.8-23.5-48.3-72.5-48.3
	c-49,0-92,32.9-92,88c0,55.4,43,90,92.3,90c49.7,0,71.5-33.9,71.5-33.9l-29.9-22.8C510.5,302.2,494.7,325.7,464.9,325.4L464.9,325.4
	L464.9,325.4z M462.5,212.6c45,0,43.3,40.3,43.3,40.3h-87C418.9,252.8,422.6,212.6,462.5,212.6L462.5,212.6z"/>
<polygon class="st2" points="590.9,358.3 568.3,358.3 568.3,181 590.9,181 590.9,358.3 "/>
<path class="st2" d="M699,205.2c47.6,0,42.6,50,42.6,68.9c0,9.5,0,84.1,0,84.1h23c0,0,0-85.5,0-107.4c0-22-1.7-35.8-18.2-52.4
	c-6.4-6.4-22.6-14.2-42.9-14.2c-8.8,0-24.7,2-38.5,11.8c-13.9,9.5-17.6,16.6-19.3,18.9v-34h-23l0,177.3h22.6c0,0,0-61.5,0-79.7
	c0-20.6,0.3-34.1,9.8-49.3C664.5,214,678.4,205.2,699,205.2L699,205.2z"/>
<path class="st2" d="M935.2,115v101.7c-5.4-8.4-27.4-33.1-67.6-33.1c-39.9,0-86.1,30.1-86.1,86.1c0,56.4,41.2,88.5,87.5,88.5
	c46.6,0,66.6-32.1,66.6-32.1l-1.2,32.1H957l1.2-243.2H935.2L935.2,115L935.2,115z M871.3,338c-38.5,0-64.9-29.4-64.9-65.9
	c0-39.5,26.3-67.9,64.9-67.9c36.1,0,65.5,31.8,65.5,67.9C936.8,308.6,907.4,338,871.3,338L871.3,338z"/>
<polygon class="st2" points="1011,358.3 988.7,358.3 989.9,181 1012.2,181 1011,358.3 "/>
<path class="st2" d="M1017.9,138.7c0,9.8-8.1,17.9-17.9,17.9c-10.1,0-18.2-8.1-18.2-17.9c0-10.1,8.1-17.9,18.2-17.9
	C1009.8,120.8,1017.9,128.5,1017.9,138.7L1017.9,138.7z"/>
<path class="st2" d="M597.3,138.7c0,9.8-7.8,17.9-17.9,17.9c-9.8,0-17.9-8.1-17.9-17.9c0-10.1,8.1-17.9,17.9-17.9
	C589.5,120.8,597.3,128.5,597.3,138.7L597.3,138.7z"/>
<path class="st2" d="M1171.6,311.3c0-27,0-58.4,0-69.6c0-10.8-1-37.2-30.1-51.3c-28.7-14.2-81.1-3.4-99.7,17.2l13.8,17.2
	c0,0,12.2-11.5,27.7-16.6c15.2-5.1,51-6.4,60.8,15.9c0,0,5.4,10.5,5.4,29.4c0,0-29,0-42.6,1c-12.5,0.7-73.3,3.7-73.3,58.4
	c0,11.5,6.8,45.3,59.8,45.3c41.5,0,56.4-30.4,56.4-30.4s1.7,30.4,4.1,30.4l20.6-0.7C1174.7,357.6,1171.6,338.3,1171.6,311.3
	L1171.6,311.3L1171.6,311.3z M1099.7,337.7c-51.7,0-55.1-55.4-1.7-62.8c0,0,36.8-5.4,51.7-2.4
	C1149.7,272.4,1156.4,337.7,1099.7,337.7L1099.7,337.7z"/>
<path class="st1" d="M1118.3,111c0,0.7,1,0.7,3.4,1.4c2.7,0.3,8.1,1.7,10.1,2.4c1.7,0.7,4.7,2.4,8.1,3.7c3,1,1.3,0-2-2
	c-3.4-2-4.1-1.7-5.1-3.7c-1-2-1.3-3-4.7-3c-3,0-6.4-0.3-7.4-0.3C1119.9,109.3,1118.3,109.9,1118.3,111L1118.3,111z"/>
</svg>
