<svg width="40" height="40" viewBox="0 0 40 40" fill="none" xmlns="http://www.w3.org/2000/svg">
<rect width="40" height="40" rx="20" fill="#FF9635"/>
<path fill-rule="evenodd" clip-rule="evenodd" d="M13.5 18.5V13.415C13.1658 13.2974 12.8841 13.0654 12.7046 12.76C12.5251 12.4546 12.4595 12.0956 12.5194 11.7464C12.5792 11.3973 12.7608 11.0806 13.0318 10.8525C13.3028 10.6243 13.6458 10.4995 14 10.5H20C22.5196 10.5 24.9359 11.5009 26.7175 13.2825C28.4991 15.0641 29.5 17.4804 29.5 20C29.5 22.5196 28.4991 24.9359 26.7175 26.7175C24.9359 28.4991 22.5196 29.5 20 29.5H14C13.6458 29.5005 13.3028 29.3757 13.0318 29.1475C12.7608 28.9194 12.5792 28.6027 12.5194 28.2536C12.4595 27.9044 12.5251 27.5454 12.7046 27.24C12.8841 26.9346 13.1658 26.7026 13.5 26.585V21.5H12C11.6022 21.5 11.2206 21.342 10.9393 21.0607C10.658 20.7794 10.5 20.3978 10.5 20C10.5 19.6022 10.658 19.2206 10.9393 18.9393C11.2206 18.658 11.6022 18.5 12 18.5H13.5ZM16.5 21.5V26.5H20C21.7239 26.5 23.3772 25.8152 24.5962 24.5962C25.8152 23.3772 26.5 21.7239 26.5 20C26.5 18.2761 25.8152 16.6228 24.5962 15.4038C23.3772 14.1848 21.7239 13.5 20 13.5H16.5V18.5H21C21.3978 18.5 21.7794 18.658 22.0607 18.9393C22.342 19.2206 22.5 19.6022 22.5 20C22.5 20.3978 22.342 20.7794 22.0607 21.0607C21.7794 21.342 21.3978 21.5 21 21.5H16.5Z" fill="white"/>
</svg>
