<svg width="40" height="40" viewBox="0 0 40 40" fill="none" xmlns="http://www.w3.org/2000/svg">
<rect width="40" height="40" rx="20" fill="#1480E3"/>
<path d="M18.9091 16.7273H23.2727C23.5621 16.7273 23.8395 16.6123 24.0441 16.4078C24.2487 16.2032 24.3636 15.9257 24.3636 15.6364C24.3636 15.347 24.2487 15.0696 24.0441 14.865C23.8395 14.6604 23.5621 14.5455 23.2727 14.5455H21.0909V13.4545C21.0909 13.1652 20.976 12.8877 20.7714 12.6832C20.5668 12.4786 20.2893 12.3636 20 12.3636C19.7107 12.3636 19.4332 12.4786 19.2286 12.6832C19.024 12.8877 18.9091 13.1652 18.9091 13.4545V14.5455C18.0411 14.5455 17.2087 14.8903 16.5949 15.504C15.9812 16.1178 15.6364 16.9502 15.6364 17.8182C15.6364 18.6862 15.9812 19.5186 16.5949 20.1323C17.2087 20.7461 18.0411 21.0909 18.9091 21.0909H21.0909C21.3802 21.0909 21.6577 21.2058 21.8623 21.4104C22.0669 21.615 22.1818 21.8925 22.1818 22.1818C22.1818 22.4711 22.0669 22.7486 21.8623 22.9532C21.6577 23.1578 21.3802 23.2727 21.0909 23.2727H16.7273C16.4379 23.2727 16.1605 23.3877 15.9559 23.5922C15.7513 23.7968 15.6364 24.0743 15.6364 24.3636C15.6364 24.653 15.7513 24.9304 15.9559 25.135C16.1605 25.3396 16.4379 25.4545 16.7273 25.4545H18.9091V26.5455C18.9091 26.8348 19.024 27.1123 19.2286 27.3168C19.4332 27.5214 19.7107 27.6364 20 27.6364C20.2893 27.6364 20.5668 27.5214 20.7714 27.3168C20.976 27.1123 21.0909 26.8348 21.0909 26.5455V25.4545C21.9589 25.4545 22.7913 25.1097 23.4051 24.496C24.0188 23.8822 24.3636 23.0498 24.3636 22.1818C24.3636 21.3138 24.0188 20.4814 23.4051 19.8676C22.7913 19.2539 21.9589 18.9091 21.0909 18.9091H18.9091C18.6198 18.9091 18.3423 18.7942 18.1377 18.5896C17.9331 18.385 17.8182 18.1075 17.8182 17.8182C17.8182 17.5289 17.9331 17.2514 18.1377 17.0468C18.3423 16.8422 18.6198 16.7273 18.9091 16.7273ZM20 8C17.6266 8 15.3066 8.70379 13.3332 10.0224C11.3598 11.3409 9.8217 13.2151 8.91345 15.4078C8.0052 17.6005 7.76756 20.0133 8.23058 22.3411C8.6936 24.6689 9.83649 26.807 11.5147 28.4853C13.193 30.1635 15.3311 31.3064 17.6589 31.7694C19.9867 32.2324 22.3995 31.9948 24.5922 31.0865C26.7849 30.1783 28.6591 28.6402 29.9776 26.6668C31.2962 24.6935 32 22.3734 32 20C32 16.8174 30.7357 13.7652 28.4853 11.5147C26.2348 9.26428 23.1826 8 20 8ZM20 29.8182C18.0581 29.8182 16.1599 29.2424 14.5453 28.1635C12.9307 27.0847 11.6723 25.5513 10.9292 23.7573C10.1861 21.9632 9.99164 19.9891 10.3705 18.0846C10.7493 16.18 11.6844 14.4306 13.0575 13.0575C14.4306 11.6844 16.18 10.7493 18.0846 10.3705C19.9891 9.99163 21.9632 10.1861 23.7573 10.9292C25.5513 11.6723 27.0847 12.9307 28.1635 14.5453C29.2424 16.1599 29.8182 18.0581 29.8182 20C29.8182 22.6039 28.7838 25.1012 26.9425 26.9425C25.1012 28.7838 22.6039 29.8182 20 29.8182Z" fill="white"/>
</svg>
