<svg width="40" height="40" viewBox="0 0 40 40" fill="none" xmlns="http://www.w3.org/2000/svg">
<rect width="40" height="40" rx="20" fill="#FFCC16"/>
<path d="M16.1098 21.7681L19.6458 25.3031C19.7396 25.3968 19.8667 25.4494 19.9993 25.4494C20.1319 25.4494 20.2591 25.3968 20.3528 25.3031L23.8888 21.7681C23.9826 21.6743 24.1097 21.6217 24.2423 21.6217C24.3749 21.6217 24.5021 21.6743 24.5958 21.7681L26.1518 23.3231C26.2456 23.4168 26.2982 23.544 26.2982 23.6766C26.2982 23.8091 26.2456 23.9363 26.1518 24.0301L20.3528 29.8291C20.2591 29.9228 20.1319 29.9754 19.9993 29.9754C19.8667 29.9754 19.7396 29.9228 19.6458 29.8291L13.8478 24.0301C13.7541 23.9363 13.7014 23.8091 13.7014 23.6766C13.7014 23.544 13.7541 23.4168 13.8478 23.3231L15.4038 21.7681C15.4976 21.6743 15.6247 21.6217 15.7573 21.6217C15.8899 21.6217 16.0171 21.6743 16.1108 21.7681H16.1098ZM28.2038 18.0331L28.2728 18.0911L29.8288 19.6461C29.9117 19.7288 29.9628 19.838 29.9734 19.9545C29.984 20.0711 29.9534 20.1877 29.8868 20.2841L29.8288 20.3541L28.2728 21.9091C28.1901 21.9919 28.0809 22.0431 27.9643 22.0536C27.8478 22.0642 27.7311 22.0336 27.6348 21.9671L27.5658 21.9091L26.0098 20.3531C25.9274 20.2703 25.8766 20.1612 25.8662 20.0449C25.8558 19.9285 25.8864 19.8122 25.9528 19.7161L26.0098 19.6461L27.5658 18.0911C27.638 18.0189 27.7305 17.9705 27.831 17.9524C27.9315 17.9344 28.035 17.9475 28.1278 17.9901L28.2038 18.0331ZM12.4338 18.0911L13.9898 19.6461C14.0836 19.7398 14.1362 19.867 14.1362 19.9996C14.1362 20.1321 14.0836 20.2593 13.9898 20.3531L12.4338 21.9101C12.3401 22.0038 12.2129 22.0564 12.0803 22.0564C11.9477 22.0564 11.8206 22.0038 11.7268 21.9101L10.1698 20.3531C10.0761 20.2593 10.0234 20.1321 10.0234 19.9996C10.0234 19.867 10.0761 19.7398 10.1698 19.6461L11.7258 18.0911C11.8196 17.9973 11.9467 17.9447 12.0793 17.9447C12.2119 17.9447 12.3401 17.9973 12.4338 18.0911ZM20.2838 18.0331L20.3538 18.0911L21.9088 19.6461C21.9917 19.7288 22.0428 19.838 22.0534 19.9545C22.064 20.0711 22.0334 20.1877 21.9668 20.2841L21.9088 20.3541L20.3538 21.9091C20.2711 21.9919 20.1619 22.0431 20.0453 22.0536C19.9288 22.0642 19.8121 22.0336 19.7158 21.9671L19.6458 21.9091L18.0908 20.3531C18.0083 20.2704 17.9572 20.1614 17.9466 20.045C17.9361 19.9287 17.9665 19.8123 18.0328 19.7161L18.0908 19.6461L19.6458 18.0911C19.718 18.0189 19.8105 17.9705 19.911 17.9524C20.0115 17.9344 20.115 17.9475 20.2078 17.9901L20.2838 18.0331ZM20.3538 10.1711L26.1518 15.9691C26.2456 16.0628 26.2982 16.19 26.2982 16.3226C26.2982 16.4551 26.2456 16.5823 26.1518 16.6761L24.5958 18.2321C24.5021 18.3258 24.3749 18.3784 24.2423 18.3784C24.1097 18.3784 23.9826 18.3258 23.8888 18.2321L20.3538 14.6971C20.3074 14.6505 20.2522 14.6135 20.1915 14.5883C20.1307 14.5631 20.0656 14.5502 19.9998 14.5502C19.9341 14.5502 19.8689 14.5631 19.8082 14.5883C19.7475 14.6135 19.6923 14.6505 19.6458 14.6971L16.1108 18.2321C16.0171 18.3258 15.8899 18.3784 15.7573 18.3784C15.6247 18.3784 15.4976 18.3258 15.4038 18.2321L13.8478 16.6761C13.7541 16.5823 13.7014 16.4551 13.7014 16.3226C13.7014 16.19 13.7541 16.0628 13.8478 15.9691L19.6458 10.1711C19.7396 10.0773 19.8667 10.0247 19.9993 10.0247C20.1319 10.0247 20.2601 10.0773 20.3538 10.1711Z" fill="white"/>
</svg>
