<svg width="40" height="40" viewBox="0 0 40 40" fill="none" xmlns="http://www.w3.org/2000/svg">
<rect width="40" height="40" rx="20" fill="#F2C94C"/>
<path d="M25.6123 19.4744C26.3385 18.6311 26.7692 17.5311 26.7692 16.3333C26.7692 14.06 25.2062 12.1411 23.0769 11.6033V9H20.6154V11.4444H18.1538V9H15.6923V11.4444H12V13.8889H14.4615V26.1111H12V28.5556H15.6923V31H18.1538V28.5556H20.6154V31H23.0769V28.5556C25.7969 28.5556 28 26.3678 28 23.6667C28 21.8944 27.04 20.33 25.6123 19.4744ZM16.9231 13.8889H21.8462C23.2 13.8889 24.3077 14.9889 24.3077 16.3333C24.3077 17.6778 23.2 18.7778 21.8462 18.7778H16.9231V13.8889ZM23.0769 26.1111H16.9231V21.2222H23.0769C24.4308 21.2222 25.5385 22.3222 25.5385 23.6667C25.5385 25.0111 24.4308 26.1111 23.0769 26.1111Z" fill="white"/>
</svg>
