<svg width="40" height="40" viewBox="0 0 40 40" fill="none" xmlns="http://www.w3.org/2000/svg">
<rect width="40" height="40" rx="20" fill="#325DF5"/>
<path fill-rule="evenodd" clip-rule="evenodd" d="M19 10.5C19 10.2348 19.1054 9.98043 19.2929 9.79289C19.4804 9.60536 19.7348 9.5 20 9.5C20.2652 9.5 20.5196 9.60536 20.7071 9.79289C20.8946 9.98043 21 10.2348 21 10.5C21 10.7652 20.8946 11.0196 20.7071 11.2071C20.5196 11.3946 20.2652 11.5 20 11.5C19.7348 11.5 19.4804 11.3946 19.2929 11.2071C19.1054 11.0196 19 10.7652 19 10.5ZM20 11.5C19.6022 11.5 19.2206 11.658 18.9393 11.9393C18.658 12.2206 18.5 12.6022 18.5 13C18.5 13.3978 18.658 13.7794 18.9393 14.0607C19.2206 14.342 19.6022 14.5 20 14.5C20.3978 14.5 20.7794 14.342 21.0607 14.0607C21.342 13.7794 21.5 13.3978 21.5 13C21.5 12.6022 21.342 12.2206 21.0607 11.9393C20.7794 11.658 20.3978 11.5 20 11.5ZM23.884 11.273C23.9492 11.1584 24.0364 11.0577 24.1406 10.9769C24.2449 10.8961 24.364 10.8367 24.4913 10.8022C24.6186 10.7676 24.7514 10.7586 24.8822 10.7756C25.013 10.7926 25.1391 10.8353 25.2533 10.9012C25.3675 10.9672 25.4676 11.0551 25.5477 11.1598C25.6278 11.2646 25.6864 11.3842 25.7201 11.5117C25.7538 11.6392 25.762 11.7721 25.7441 11.9027C25.7262 12.0334 25.6827 12.1592 25.616 12.273C25.4824 12.5008 25.2642 12.6665 25.0089 12.734C24.7536 12.8015 24.482 12.7653 24.2533 12.6333C24.0246 12.5012 23.8574 12.2841 23.7883 12.0293C23.7191 11.7744 23.7535 11.5026 23.884 11.273ZM14.75 10.907C14.8638 10.8403 14.9896 10.7968 15.1203 10.7789C15.2509 10.761 15.3838 10.7692 15.5113 10.8029C15.6388 10.8366 15.7584 10.8952 15.8632 10.9753C15.9679 11.0554 16.0558 11.1555 16.1218 11.2697C16.1877 11.3839 16.2304 11.51 16.2474 11.6408C16.2644 11.7716 16.2554 11.9044 16.2208 12.0317C16.1863 12.159 16.1269 12.2781 16.0461 12.3824C15.9653 12.4866 15.8646 12.5738 15.75 12.639C15.5204 12.7695 15.2486 12.8039 14.9937 12.7347C14.7389 12.6656 14.5218 12.4984 14.3897 12.2697C14.2577 12.041 14.2215 11.7694 14.289 11.5141C14.3565 11.2588 14.5222 11.0406 14.75 10.907ZM23.89 13.99C24.0964 13.7834 24.3587 13.6416 24.6446 13.5819C24.9305 13.5223 25.2276 13.5474 25.4995 13.6541C25.7713 13.7609 26.0061 13.9448 26.1749 14.1831C26.3438 14.4214 26.4394 14.7038 26.45 14.9957C26.4607 15.2875 26.3859 15.5762 26.2348 15.8261C26.0837 16.0761 25.863 16.2765 25.5997 16.4028C25.3363 16.5291 25.0418 16.5758 24.7523 16.5371C24.4628 16.4984 24.1909 16.376 23.97 16.185C24.05 16.633 23.977 17.111 23.732 17.535C23.5636 17.8281 23.3234 18.0734 23.034 18.248C23.2704 18.1175 23.5307 18.0363 23.7994 18.0091C24.068 17.982 24.3394 18.0095 24.5971 18.0901C24.8548 18.1706 25.0935 18.3025 25.2989 18.4778C25.5042 18.6531 25.672 18.8681 25.792 19.11C25.9794 18.8556 26.2422 18.6669 26.5432 18.5707C26.8441 18.4745 27.1678 18.4758 27.4679 18.5744C27.7681 18.673 28.0295 18.8639 28.2148 19.1198C28.4 19.3757 28.4998 19.6836 28.4998 19.9995C28.4998 20.3154 28.4 20.6233 28.2148 20.8792C28.0295 21.1351 27.7681 21.326 27.4679 21.4246C27.1678 21.5232 26.8441 21.5245 26.5432 21.4283C26.2422 21.3321 25.9794 21.1434 25.792 20.889C25.672 21.1311 25.5042 21.3464 25.2987 21.5219C25.0931 21.6974 24.8542 21.8294 24.5962 21.9099C24.3383 21.9905 24.0667 22.0179 23.7979 21.9906C23.529 21.9633 23.2685 21.8818 23.032 21.751C23.3793 21.9591 23.6549 22.2682 23.8221 22.6369C23.9893 23.0057 24.0402 23.4166 23.968 23.815C24.2305 23.5877 24.5636 23.4586 24.9107 23.4495C25.2578 23.4404 25.5972 23.552 25.8712 23.7653C26.1452 23.9785 26.3367 24.2802 26.4131 24.6188C26.4895 24.9575 26.4461 25.3122 26.2902 25.6224C26.1343 25.9326 25.8757 26.1792 25.5584 26.32C25.241 26.4608 24.8847 26.4872 24.55 26.3947C24.2154 26.3022 23.9233 26.0964 23.7234 25.8125C23.5235 25.5286 23.4283 25.1842 23.454 24.838C23.1809 25.1259 22.8283 25.3262 22.4411 25.4133C22.0539 25.5005 21.6495 25.4705 21.2793 25.3274C20.9092 25.1842 20.5899 24.9342 20.3621 24.6092C20.1343 24.2842 20.0083 23.8988 20 23.502C19.9927 23.8993 19.8672 24.2853 19.6395 24.611C19.4119 24.9366 19.0924 25.1871 18.7218 25.3304C18.3513 25.4737 17.9464 25.5035 17.5589 25.4158C17.1714 25.3281 16.8187 25.1269 16.546 24.838C16.5716 25.1842 16.4764 25.5285 16.2766 25.8123C16.0768 26.0962 15.7847 26.3019 15.4502 26.3945C15.1156 26.4871 14.7593 26.4608 14.442 26.32C14.1247 26.1793 13.866 25.9329 13.71 25.6228C13.5541 25.3127 13.5105 24.9581 13.5867 24.6194C13.6629 24.2808 13.8543 23.9791 14.128 23.7657C14.4018 23.5523 14.7412 23.4405 15.0882 23.4493C15.4352 23.4581 15.7684 23.587 16.031 23.814C15.9478 23.3501 16.0318 22.8718 16.268 22.464C16.4369 22.1707 16.6778 21.9253 16.968 21.751C16.7316 21.8818 16.4711 21.9634 16.2023 21.9908C15.9335 22.0182 15.6619 21.9908 15.404 21.9103C15.1461 21.8299 14.9071 21.698 14.7015 21.5226C14.496 21.3472 14.3281 21.132 14.208 20.89C14.0206 21.1444 13.7578 21.3331 13.4568 21.4293C13.1559 21.5255 12.8322 21.5242 12.5321 21.4256C12.2319 21.327 11.9705 21.1361 11.7852 20.8802C11.6 20.6243 11.5002 20.3164 11.5002 20.0005C11.5002 19.6846 11.6 19.3767 11.7852 19.1208C11.9705 18.8649 12.2319 18.674 12.5321 18.5754C12.8322 18.4768 13.1559 18.4755 13.4568 18.5717C13.7578 18.6679 14.0206 18.8566 14.208 19.111C14.328 18.869 14.4958 18.6538 14.7012 18.4784C14.9067 18.3031 15.1455 18.1711 15.4033 18.0906C15.6612 18.01 15.9326 17.9825 16.2014 18.0098C16.4701 18.037 16.7306 18.1184 16.967 18.249C16.6772 18.0746 16.4367 17.8292 16.268 17.536C16.0318 17.1282 15.9478 16.6499 16.031 16.186C15.7684 16.413 15.4352 16.5419 15.0882 16.5507C14.7412 16.5595 14.4018 16.4477 14.128 16.2343C13.8543 16.0209 13.6629 15.7192 13.5867 15.3806C13.5105 15.0419 13.5541 14.6873 13.71 14.3772C13.866 14.0671 14.1247 13.8207 14.442 13.68C14.7593 13.5392 15.1156 13.5129 15.4502 13.6055C15.7847 13.6981 16.0768 13.9038 16.2766 14.1877C16.4764 14.4715 16.5716 14.8158 16.546 15.162C16.8187 14.8731 17.1714 14.6719 17.5589 14.5842C17.9464 14.4965 18.3513 14.5263 18.7218 14.6696C19.0924 14.8129 19.4119 15.0634 19.6395 15.389C19.8672 15.7147 19.9927 16.1007 20 16.498C20.0073 16.1007 20.1328 15.7147 20.3605 15.389C20.5881 15.0634 20.9076 14.8129 21.2782 14.6696C21.6487 14.5263 22.0536 14.4965 22.4411 14.5842C22.8286 14.6719 23.1813 14.8731 23.454 15.162C23.423 14.742 23.568 14.311 23.889 13.99H23.89ZM20 16.57C19.9947 16.9155 19.8999 17.2537 19.7249 17.5516C19.5499 17.8495 19.3006 18.097 19.0014 18.2698C18.7021 18.4425 18.3632 18.5348 18.0177 18.5374C17.6722 18.5401 17.3319 18.4531 17.03 18.285C17.3264 18.4626 17.5716 18.7139 17.7419 19.0146C17.9121 19.3152 18.0016 19.6548 18.0015 20.0003C18.0014 20.3458 17.9117 20.6853 17.7413 20.9859C17.5709 21.2864 17.3255 21.5376 17.029 21.715C17.3309 21.5469 17.6713 21.46 18.0168 21.4627C18.3624 21.4654 18.7013 21.5576 19.0006 21.7304C19.2999 21.9031 19.5493 22.1505 19.7244 22.4484C19.8996 22.7463 19.9945 23.0845 20 23.43C20.0056 23.0846 20.1005 22.7466 20.2756 22.4488C20.4507 22.1511 20.7 21.9038 20.9991 21.7311C21.2983 21.5583 21.637 21.4661 21.9824 21.4633C22.3279 21.4604 22.6681 21.5472 22.97 21.715C22.6736 21.5375 22.4283 21.2862 22.2579 20.9856C22.0876 20.6851 21.998 20.3455 21.998 20C21.998 19.6545 22.0876 19.3149 22.2579 19.0144C22.4283 18.7138 22.6736 18.4625 22.97 18.285C22.6681 18.4528 22.3279 18.5396 21.9824 18.5367C21.637 18.5339 21.2983 18.4417 20.9991 18.2689C20.7 18.0962 20.4507 17.8489 20.2756 17.5512C20.1005 17.2534 20.0056 16.9154 20 16.57ZM11.5002 20.0005C11.5002 19.7353 11.3946 19.4804 11.2071 19.2929C11.0196 19.1054 10.7652 19 10.5 19C10.2348 19 9.98043 19.1054 9.79289 19.2929C9.60536 19.4804 9.5 19.7348 9.5 20C9.5 20.2652 9.60536 20.5196 9.79289 20.7071C9.98043 20.8946 10.2348 21 10.5 21C10.7652 21 11.0196 20.8946 11.2071 20.7071C11.3946 20.5196 11.5002 20.2657 11.5002 20.0005ZM10.907 14.75C10.9722 14.6354 11.0594 14.5347 11.1636 14.4539C11.2679 14.3731 11.387 14.3137 11.5143 14.2792C11.6416 14.2446 11.7744 14.2356 11.9052 14.2526C12.036 14.2696 12.1621 14.3123 12.2763 14.3782C12.3905 14.4442 12.4906 14.5321 12.5707 14.6368C12.6508 14.7416 12.7094 14.8612 12.7431 14.9887C12.7768 15.1162 12.785 15.2491 12.7671 15.3797C12.7492 15.5104 12.7057 15.6362 12.639 15.75C12.5054 15.9778 12.2872 16.1435 12.0319 16.211C11.7766 16.2785 11.505 16.2423 11.2763 16.1103C11.0476 15.9782 10.8804 15.7611 10.8113 15.5063C10.7421 15.2514 10.7765 14.9796 10.907 14.75ZM27.727 14.384C27.8408 14.3173 27.9666 14.2738 28.0973 14.2559C28.2279 14.238 28.3608 14.2462 28.4883 14.2799C28.6158 14.3136 28.7354 14.3722 28.8402 14.4523C28.9449 14.5324 29.0328 14.6325 29.0988 14.7467C29.1647 14.8609 29.2074 14.987 29.2244 15.1178C29.2414 15.2486 29.2324 15.3814 29.1978 15.5087C29.1633 15.636 29.1039 15.7551 29.0231 15.8594C28.9423 15.9636 28.8416 16.0508 28.727 16.116C28.4974 16.2465 28.2256 16.2809 27.9707 16.2117C27.7159 16.1426 27.4988 15.9754 27.3667 15.7467C27.2347 15.518 27.1985 15.2464 27.266 14.9911C27.3335 14.7358 27.4992 14.5176 27.727 14.384ZM28.4998 19.9995C28.4998 19.7343 28.6054 19.4804 28.7929 19.2929C28.9804 19.1054 29.2348 19 29.5 19C29.7652 19 30.0196 19.1054 30.2071 19.2929C30.3946 19.4804 30.5 19.7348 30.5 20C30.5 20.2652 30.3946 20.5196 30.2071 20.7071C30.0196 20.8946 29.7652 21 29.5 21C29.2348 21 28.9804 20.8946 28.7929 20.7071C28.6054 20.5196 28.4998 20.2647 28.4998 19.9995ZM11.273 23.884C11.3868 23.8173 11.5126 23.7738 11.6433 23.7559C11.7739 23.738 11.9068 23.7462 12.0343 23.7799C12.1618 23.8136 12.2814 23.8722 12.3862 23.9523C12.4909 24.0324 12.5788 24.1325 12.6448 24.2467C12.7107 24.3609 12.7534 24.487 12.7704 24.6178C12.7874 24.7486 12.7784 24.8814 12.7438 25.0087C12.7093 25.136 12.6499 25.2551 12.5691 25.3594C12.4883 25.4636 12.3876 25.5508 12.273 25.616C12.0434 25.7465 11.7716 25.7809 11.5167 25.7117C11.2619 25.6426 11.0448 25.4754 10.9127 25.2467C10.7807 25.018 10.7445 24.7464 10.812 24.4911C10.8795 24.2358 11.0452 24.0176 11.273 23.884ZM27.361 24.25C27.4262 24.1354 27.5134 24.0347 27.6176 23.9539C27.7219 23.8731 27.841 23.8137 27.9683 23.7792C28.0956 23.7446 28.2284 23.7356 28.3592 23.7526C28.49 23.7696 28.6161 23.8123 28.7303 23.8782C28.8445 23.9442 28.9446 24.0321 29.0247 24.1368C29.1048 24.2416 29.1634 24.3612 29.1971 24.4887C29.2308 24.6162 29.239 24.7491 29.2211 24.8797C29.2032 25.0104 29.1597 25.1362 29.093 25.25C28.9594 25.4778 28.7412 25.6435 28.4859 25.711C28.2306 25.7785 27.959 25.7423 27.7303 25.6103C27.5016 25.4782 27.3344 25.2611 27.2653 25.0063C27.1961 24.7514 27.2305 24.4796 27.361 24.25ZM18.5 27C18.5 26.6022 18.658 26.2206 18.9393 25.9393C19.2206 25.658 19.6022 25.5 20 25.5C20.3978 25.5 20.7794 25.658 21.0607 25.9393C21.342 26.2206 21.5 26.6022 21.5 27C21.5 27.3978 21.342 27.7794 21.0607 28.0607C20.7794 28.342 20.3978 28.5 20 28.5C19.6022 28.5 19.2206 28.342 18.9393 28.0607C18.658 27.7794 18.5 27.3978 18.5 27ZM20 28.5C19.7348 28.5 19.4804 28.6054 19.2929 28.7929C19.1054 28.9804 19 29.2348 19 29.5C19 29.7652 19.1054 30.0196 19.2929 30.2071C19.4804 30.3946 19.7348 30.5 20 30.5C20.2652 30.5 20.5196 30.3946 20.7071 30.2071C20.8946 30.0196 21 29.7652 21 29.5C21 29.2348 20.8946 28.9804 20.7071 28.7929C20.5196 28.6054 20.2652 28.5 20 28.5ZM14.384 27.727C14.4492 27.6124 14.5364 27.5117 14.6406 27.4309C14.7449 27.3501 14.864 27.2907 14.9913 27.2562C15.1186 27.2216 15.2514 27.2126 15.3822 27.2296C15.513 27.2466 15.6391 27.2893 15.7533 27.3552C15.8675 27.4212 15.9676 27.5091 16.0477 27.6138C16.1278 27.7186 16.1864 27.8382 16.2201 27.9657C16.2538 28.0932 16.262 28.2261 16.2441 28.3567C16.2262 28.4874 16.1827 28.6132 16.116 28.727C15.9824 28.9548 15.7642 29.1205 15.5089 29.188C15.2536 29.2555 14.982 29.2193 14.7533 29.0873C14.5246 28.9552 14.3574 28.7381 14.2883 28.4833C14.2191 28.2284 14.2535 27.9566 14.384 27.727ZM24.25 27.361C24.3638 27.2953 24.4894 27.2527 24.6197 27.2356C24.7499 27.2185 24.8823 27.2272 25.0092 27.2612C25.136 27.2953 25.255 27.354 25.3592 27.434C25.4634 27.514 25.5508 27.6137 25.6165 27.7275C25.6822 27.8413 25.7248 27.9669 25.7419 28.0972C25.759 28.2274 25.7503 28.3598 25.7163 28.4867C25.6822 28.6135 25.6235 28.7325 25.5435 28.8367C25.4635 28.9409 25.3638 29.0283 25.25 29.094C25.0202 29.2266 24.7471 29.2625 24.4908 29.1938C24.2346 29.125 24.0161 28.9573 23.8835 28.7275C23.7509 28.4977 23.715 28.2246 23.7837 27.9683C23.8525 27.7121 24.0202 27.4936 24.25 27.361Z" fill="white"/>
</svg>
