<svg width="40" height="40" viewBox="0 0 40 40" fill="none" xmlns="http://www.w3.org/2000/svg">
<rect width="40" height="40" rx="20" fill="#018F90"/>
<path fill-rule="evenodd" clip-rule="evenodd" d="M26.7996 10C27.177 9.99996 27.5488 10.092 27.8828 10.268C28.2167 10.4441 28.5029 10.699 28.7165 11.0106L28.8176 11.1736L32.6933 17.964C32.9299 18.3785 33.0337 18.8558 32.9904 19.3312C32.9472 19.8067 32.759 20.2574 32.4515 20.6222L32.319 20.7654L21.5278 31.5739C21.2747 31.8273 20.9371 31.9783 20.5797 31.9978C20.2223 32.0174 19.8703 31.9041 19.5911 31.6798L19.4725 31.575L8.68132 20.7654C8.34424 20.4279 8.11885 19.9948 8.03568 19.5248C7.9525 19.0547 8.01557 18.5704 8.21634 18.1375L8.30701 17.9628L12.1815 11.1725C12.3688 10.8442 12.633 10.5666 12.9514 10.3635C13.2698 10.1605 13.6328 10.0381 14.0089 10.007L14.1984 10H26.7996ZM26.7996 12.3287H14.1984L10.3239 19.1202L20.499 29.3116L30.6741 19.1202L26.7996 12.3287ZM23.9864 13.493C24.2947 13.493 24.5904 13.6157 24.8084 13.834C25.0264 14.0524 25.1489 14.3485 25.1489 14.6573C25.1489 14.9661 25.0264 15.2623 24.8084 15.4806C24.5904 15.699 24.2947 15.8216 23.9864 15.8216H21.6615V17.6205C22.5426 17.702 23.3436 17.8732 23.9911 18.1165C24.4502 18.2889 24.8618 18.5078 25.1687 18.7814C25.4755 19.0538 25.7301 19.4299 25.7301 19.8968C25.7301 20.3637 25.4755 20.7398 25.1687 21.0122C24.8618 21.2858 24.4502 21.5047 23.9911 21.6759C23.3006 21.9355 22.4357 22.1148 21.4836 22.1882C21.6002 22.3737 21.6619 22.5885 21.6615 22.8076V25.1363C21.6615 25.4451 21.539 25.7412 21.321 25.9596C21.103 26.1779 20.8073 26.3006 20.499 26.3006C20.1907 26.3006 19.895 26.1779 19.677 25.9596C19.459 25.7412 19.3365 25.4451 19.3365 25.1363V22.8076C19.3365 22.5794 19.4016 22.3675 19.5144 22.1882C18.5623 22.1148 17.6975 21.9367 17.0069 21.6759C16.5478 21.5047 16.1363 21.2858 15.8294 21.0122C15.5225 20.7398 15.2679 20.3637 15.2679 19.8968C15.2679 19.4299 15.5225 19.0538 15.8294 18.7814C16.1363 18.5078 16.5478 18.2889 17.0069 18.1177C17.6533 17.8732 18.4542 17.702 19.3365 17.6205V15.8216H17.0116C16.7033 15.8216 16.4076 15.699 16.1896 15.4806C15.9716 15.2623 15.8491 14.9661 15.8491 14.6573C15.8491 14.3485 15.9716 14.0524 16.1896 13.834C16.4076 13.6157 16.7033 13.493 17.0116 13.493H23.9864ZM21.6603 18.7907C21.6469 19.0902 21.5187 19.3729 21.3024 19.5801C21.0861 19.7873 20.7983 19.903 20.499 19.903C20.1997 19.903 19.9119 19.7873 19.6956 19.5801C19.4793 19.3729 19.3511 19.0902 19.3377 18.7907C18.682 18.8483 18.036 18.9879 17.415 19.2063C17.0314 19.3507 16.764 19.5079 16.6001 19.6523C16.4641 19.7734 16.4373 19.8526 16.4315 19.884L16.4304 19.8968C16.4304 19.9119 16.4362 19.9958 16.6001 20.1413C16.7628 20.2857 17.0325 20.444 17.415 20.5861C18.1764 20.8725 19.2656 21.0611 20.499 21.0611C21.7312 21.0611 22.8216 20.8725 23.583 20.5861C23.9655 20.4429 24.234 20.2857 24.3968 20.1413C24.4674 20.0869 24.5234 20.0156 24.5595 19.9341L24.5677 19.8968L24.5595 19.8595C24.5234 19.778 24.4674 19.7067 24.3968 19.6523C24.234 19.5079 23.9655 19.3496 23.583 19.2075C23.0716 19.0154 22.4113 18.8664 21.6603 18.7907Z" fill="white"/>
</svg>
