<svg width="33" height="42" viewBox="0 0 33 42" fill="none" xmlns="http://www.w3.org/2000/svg">
<path d="M16.5 9.16263C15.058 9.16263 13.6485 9.58806 12.4495 10.3851C11.2506 11.1822 10.3161 12.315 9.76427 13.6405C9.21246 14.9659 9.06808 16.4244 9.34939 17.8315C9.6307 19.2386 10.3251 20.5311 11.3447 21.5456C12.3643 22.56 13.6634 23.2509 15.0777 23.5308C16.4919 23.8106 17.9578 23.667 19.29 23.118C20.6222 22.569 21.7609 21.6392 22.562 20.4464C23.3631 19.2535 23.7907 17.851 23.7907 16.4164C23.7907 14.4926 23.0226 12.6476 21.6553 11.2872C20.288 9.92687 18.4336 9.16263 16.5 9.16263ZM16.5 21.3795C15.5134 21.3795 14.5489 21.0884 13.7286 20.543C12.9083 19.9977 12.2689 19.2226 11.8913 18.3157C11.5138 17.4088 11.415 16.4109 11.6075 15.4481C11.8 14.4854 12.2751 13.6011 12.9727 12.9069C13.6703 12.2128 14.5592 11.7402 15.5268 11.5487C16.4945 11.3572 17.4975 11.4554 18.409 11.8311C19.3205 12.2067 20.0996 12.8429 20.6477 13.659C21.1958 14.4752 21.4884 15.4348 21.4884 16.4164C21.4884 17.7327 20.9628 18.9951 20.0273 19.9258C19.0918 20.8566 17.823 21.3795 16.5 21.3795ZM16.5 0C12.1255 0.00505206 7.9316 1.73625 4.83835 4.81383C1.7451 7.8914 0.00507779 12.064 0 16.4164C0 22.3167 2.75128 28.5836 7.95645 34.5393C10.3058 37.2406 12.9499 39.6735 15.84 41.7931C16.0335 41.9278 16.2639 42 16.5 42C16.7361 42 16.9665 41.9278 17.16 41.7931C20.0501 39.6735 22.6942 37.2406 25.0435 34.5393C30.2487 28.5836 33 22.3225 33 16.4164C32.9949 12.064 31.2549 7.8914 28.1617 4.81383C25.0684 1.73625 20.8745 0.00505206 16.5 0ZM16.5 39.4203C13.6221 37.2098 2.30233 27.7971 2.30233 16.4164C2.30233 12.67 3.79815 9.07708 6.46073 6.42799C9.12331 3.7789 12.7345 2.29066 16.5 2.29066C20.2655 2.29066 23.8767 3.7789 26.5393 6.42799C29.2019 9.07708 30.6977 12.67 30.6977 16.4164C30.6977 27.7971 19.3779 37.2098 16.5 39.4203Z" fill="#F4796C"/>
</svg>
