<svg width="40" height="28" viewBox="0 0 40 28" fill="none" xmlns="http://www.w3.org/2000/svg">
<path d="M37.1429 0H2.85714C2.09938 0 1.37266 0.294999 0.836838 0.820101C0.301019 1.3452 0 2.05739 0 2.8V25.2C0 25.9426 0.301019 26.6548 0.836838 27.1799C1.37266 27.705 2.09938 28 2.85714 28H37.1429C37.9006 28 38.6273 27.705 39.1632 27.1799C39.699 26.6548 40 25.9426 40 25.2V2.8C40 2.05739 39.699 1.3452 39.1632 0.820101C38.6273 0.294999 37.9006 0 37.1429 0ZM34 2.8L20 12.292L6 2.8H34ZM2.85714 25.2V4.074L19.1857 15.148C19.4249 15.3106 19.709 15.3977 20 15.3977C20.291 15.3977 20.5751 15.3106 20.8143 15.148L37.1429 4.074V25.2H2.85714Z" fill="#F4796C"/>
</svg>
