<svg width="38" height="38" viewBox="0 0 38 38" fill="none" xmlns="http://www.w3.org/2000/svg">
<path d="M19.5092 1.22699C19.5719 0.844454 19.7837 0.502395 20.0983 0.27588C20.4129 0.049364 20.8046 -0.0431032 21.1873 0.0187698C21.2379 0.0285135 21.3958 0.0577447 21.4796 0.0772321C21.6453 0.114258 21.8772 0.170772 22.1656 0.254568C22.7445 0.424109 23.5533 0.70278 24.5239 1.14515C26.465 2.03572 29.0474 3.59277 31.7292 6.27424C34.4109 8.95572 35.9682 11.5378 36.8588 13.4807C37.3032 14.4492 37.5799 15.258 37.7495 15.8367C37.8351 16.1291 37.9086 16.4249 37.9697 16.7234L37.9795 16.7819C38.0442 17.1681 37.9544 17.5643 37.7294 17.8848C37.5044 18.2053 37.1622 18.4245 36.777 18.4948C36.3954 18.5568 36.0047 18.4651 35.6906 18.2397C35.3765 18.0144 35.1644 17.6738 35.1009 17.2925C35.0561 17.078 35.0028 16.8654 34.9411 16.6552C34.7419 15.986 34.4944 15.3321 34.2005 14.6987C33.4404 13.0422 32.0761 10.7525 29.6633 8.34187C27.2505 5.92932 24.9624 4.5613 23.3038 3.80129C22.671 3.50745 22.0177 3.25996 21.349 3.06076C21.144 3.00293 20.9373 2.95094 20.7293 2.90486C20.3468 2.84112 20.0047 2.62979 19.7765 2.31635C19.5483 2.00292 19.4523 1.61243 19.5092 1.22894V1.22699Z" fill="#F4796C"/>
<path fill-rule="evenodd" clip-rule="evenodd" d="M19.9497 7.95017C20.0562 7.57757 20.3064 7.26253 20.6452 7.07433C20.984 6.88613 21.3837 6.84017 21.7564 6.94656H21.7622L21.7681 6.95046L21.7836 6.95436L21.8226 6.96605C21.8519 6.97579 21.8889 6.98749 21.9318 7.00502C22.0484 7.04546 22.1635 7.09031 22.2767 7.13949C22.5613 7.26031 22.9491 7.44934 23.4266 7.72996C24.3816 8.29509 25.6816 9.23244 27.2115 10.7622C28.7414 12.292 29.6789 13.5937 30.2441 14.5486C30.5267 15.0241 30.7138 15.4119 30.8366 15.6984C30.9001 15.8473 30.9573 15.9988 31.0081 16.1524L31.0217 16.1914L31.0256 16.2051V16.2109L31.0276 16.2148C31.1314 16.585 31.0852 16.9831 30.8989 17.3195C30.7126 17.6558 30.4013 17.9052 30.0324 18.0137C29.6635 18.1221 29.2667 18.0808 28.928 17.8988C28.5893 17.7167 28.336 17.4086 28.223 17.0411L28.2172 17.0196C28.0801 16.6803 27.9172 16.3519 27.7299 16.0375C27.2934 15.3028 26.5079 14.1939 25.1456 12.8298C23.7813 11.4657 22.6704 10.6804 21.9376 10.2458C21.6232 10.0584 21.2948 9.89557 20.9553 9.7586L20.9339 9.75081C20.5662 9.64012 20.2568 9.38918 20.0726 9.05223C19.8884 8.71529 19.8443 8.31941 19.9497 7.95017ZM3.42447 6.15147C6.69872 2.87758 12.226 3.12702 14.5062 7.21159L15.7711 9.47798C17.2582 12.1458 16.6248 15.5113 14.4458 17.7173C14.3175 17.9119 14.2472 18.139 14.2431 18.3721C14.2178 18.8709 14.3952 20.0265 16.1862 21.8155C17.9754 23.6044 19.1292 23.7837 19.63 23.7584C19.8636 23.7553 20.0915 23.6857 20.2868 23.5577C22.4911 21.377 25.8589 20.7437 28.5251 22.2325L30.7917 23.4973C34.8767 25.7773 35.1262 31.302 31.852 34.5759C30.0998 36.3259 27.7728 37.8829 25.0345 37.9862C20.9807 38.1401 14.2451 37.0937 7.57575 30.4251C0.908365 23.7564 -0.140175 17.0235 0.0137931 12.9682C0.117088 10.2321 1.6743 7.90145 3.42447 6.15147ZM11.9531 8.63613C10.7837 6.54512 7.64591 6.06378 5.49231 8.21909C3.98187 9.72937 2.99765 11.3955 2.93528 13.0793C2.80665 16.4603 3.64275 22.3553 9.64359 28.3574C15.6464 34.3596 21.542 35.1936 24.9234 35.065C26.6054 35.0027 28.2756 34.0185 29.7841 32.5083C31.9397 30.353 31.4602 27.2174 29.367 26.0501L27.1004 24.7834C25.6913 23.9981 23.7092 24.267 22.3196 25.6565C22.1832 25.7929 21.3139 26.6036 19.7723 26.6776C18.1937 26.7556 16.2817 26.0462 14.1203 23.8831C11.9551 21.72 11.2456 19.8083 11.3236 18.2279C11.3977 16.6864 12.2104 15.8173 12.3448 15.6828C13.7364 14.2914 14.0034 12.3115 13.218 10.9025L11.9512 8.63613H11.9531Z" fill="#F4796C"/>
</svg>
